<?xml version="1.0" encoding="UTF-8"?>
<svg id="Capa_2" data-name="Capa 2" xmlns="http://www.w3.org/2000/svg" viewBox="0 0 528 207">
  <defs>
    <style>
      .cls-1 {
        fill: #ffb300;
      }

      .cls-1, .cls-2 {
        stroke-width: 0px;
      }

      .cls-2 {
        fill: none;
      }
    </style>
  </defs>
  <g id="logoDarkYellow">
    <rect class="cls-2" width="528" height="207"/>
    <g>
      <path class="cls-1" d="M74.49,85.44c1.07-1.2.56-3.41.54-5.04-.03-3.33-.09-6.66-.09-9.98,0-17.27,8.77-23.44,27.69-23.44,3.65,0,7.3.21,10.94.46,2.2.15,4.69-.19,6.79.64,3.18,1.25,2.22,4.31,2.18,7.18-.03,2.15-1.13,25.62-1.95,25.57-3.09-.16-6.18-.33-9.27-.49s-10.51-2.47-11.44,1.65c-1.45,6.39,12.2,4.05,15.41,4.21,4.92.25,5.13,1.54,5.38,6.34.34,6.3,1.38,14.5-.29,20.65-1.14,4.18-7.18,2.7-10.53,2.62-1.87-.04-5.36-1.2-6.81.44s-.5,7.26-.49,9.33c0,3.43,2.54,12.92-1.23,15.02-2.93,1.63-8.89.63-12.08.59-3.59-.05-7.33.64-10.87-.24-4.34-1.08-3.27-4.25-3.25-7.96.02-4.34.07-8.68.09-13.02.01-2.1.8-4.14-1.42-4.99-1.91-.73-4.14.61-5.36-1.78-1.1-2.16-.61-6.25-.69-8.64-.09-3.05-.09-6.11.02-9.16.08-2.01-.46-6.6.59-8.31,1.06-1.72,4.22-.34,5.67-1.25.18-.11.34-.25.47-.4Z"/>
      <path class="cls-1" d="M153.47,70.69c19.74,0,29.74,11.92,29.74,35.63,0,8.2-1.12,17.04-5.77,24.02-2.81,4.21-8.11,9.21-13.47,6-2.52-1.51-4.04-4.3-4.66-7.17-.47-2.18-.36-4.33-.34-6.54.02-3.2-.67-6.01.8-9.03.95-1.95,2.26-3.71,3.11-5.71,1.22-2.87,1.4-6.06,1.49-9.18.09-3.24.08-6.52-.54-9.72-.27-1.38-1.99-8.28-4.35-4.64-.51.79-.54,1.79-.55,2.73-.04,3.77.05,7.71-.61,11.45-.14.8-.43,1.72-1.21,1.97-.5.16-1.05-.05-1.46-.37-1.06-.84-1.35-2.29-1.56-3.62-.63-3.89-.24-7.92-1.02-11.78-.19-.94-.71-2.04-1.67-2.07-.75-.02-1.33.66-1.68,1.33-2.26,4.39.14,9.77-.98,14.46-.14.59-.29,1.21-.67,1.68s-1.07.77-1.62.51c-.39-.18-.63-.59-.82-.98-2.18-4.4-1.58-9.53-1.58-14.29,0-.64,0-1.34-.4-1.85-.59-.77-1.85-.71-2.62-.12s-1.17,1.54-1.49,2.46c-2.93,8.56-1.36,18.52,4.05,25.77,2.05,2.75,1.74,6.38,2.2,9.78.39,2.93.15,5.9-.08,8.84-.1,1.3-.21,2.62-.67,3.85-3.43,9.3-12.53.78-15.59-3.85-4.6-6.97-5.71-15.76-5.71-23.93,0-23.71,10-35.63,29.74-35.63Z"/>
      <path class="cls-1" d="M215.69,70.69c19.74,0,29.74,11.92,29.74,35.63,0,7.19-.86,14.71-4.14,21.21-2.11,4.19-5.95,9.19-10.67,10.54-1.82.52-3.79.72-5.58.11-2.78-.96-3.95-3.83-4.34-6.51-.28-1.94-.44-3.9-.46-5.86-.01-1.09.03-2.21.47-3.2.41-.93,1.15-1.67,1.84-2.4,3.62-3.84,6.68-8.46,7.47-13.68.27-1.8.27-3.62.14-5.44-.38-5.42-1.91-10.84-6.86-13.77-3.02-1.79-6.65-2.38-10.14-2.03-3.07.31-6.13,1.35-8.49,3.34-2.96,2.49-3.78,5.66-3.97,9.35-.35,6.48,1.54,13.06,5.26,18.37,1.23,1.76,2.69,3.44,3.31,5.5.45,1.49.43,3.08.33,4.63-.15,2.48-.48,4.96-.98,7.39-.4,1.96-1.09,4.13-2.87,5.04-3.7,1.89-9.06-2.81-11.4-5.26-6.85-7.16-8.41-17.82-8.41-27.32,0-23.71,10-35.63,29.74-35.63Z"/>
      <path class="cls-1" d="M329.43,48.62c8.91,0,14.25,5.07,14.25,13.71s-5.34,13.43-14.25,13.43-14.25-5.07-14.25-13.43,5.34-13.71,14.25-13.71ZM342.38,82.55c.16.15.29.31.37.49.7,1.51.28,4.31.29,5.95.01,2.5.02,5,.03,7.51.02,5.08.03,10.16.03,15.24,0,4.43.13,8.87.18,13.3.04,4.02.97,8.05.28,12.07-.36,2.12-.71,3.29-3.09,3.69-3.69.63-8.07.39-11.83.37-3.03-.02-9.8.78-12.01-1.34-2.84-2.72-.67-8.86-.62-12.12.08-5.15.12-10.31.12-15.46,0-4.92-.03-9.83-.09-14.75-.03-2.35-.07-4.69-.12-7.04-.04-1.93-.94-4.67-.46-6.51.81-3.06,8.91-2.75,11.46-2.79s13.07-.76,15.45,1.4Z"/>
      <path class="cls-1" d="M455.73,73.61c3.57,4.27,1.56,12.46,1.15,17.57-.16,2.02.33,5.56-1.69,6.6-2.16,1.11-6.52-.29-8.67-.91-2.98-.85-5.86-2.02-8.85-2.83-1.11-.3-2.53-.44-3.18.5-.41.59-.32,1.43.07,2.04s1.01,1.03,1.66,1.35c5.81,2.93,12.44,2.74,17.75,7.14,4.54,3.77,6.06,9.35,6.06,15.08,0,13.43-7.26,21.93-29.33,21.93-5.8,0-12.08-.06-17.78-1.19-4.69-.94-4.69-4.46-4.58-8.56.11-4.29.41-8.57.84-12.84.13-1.24-.15-3.31,1.15-3.76.83-.28,3.74,1.3,4.63,1.59,3.07,1,6.18,1.85,9.28,2.71,2.56.71,5.16,1.42,7.81,1.3,1.33-.06,2.95-.64,3.05-1.97.1-1.35-1.46-2.15-2.75-2.57-6.31-2.05-13.71-3.45-18.86-7.95-4.44-3.88-5.81-9.58-5.81-15.29,0-13.84,7.13-23.16,30.02-23.16,4.87,0,10.28-.66,14.99,1.09,1.3.48,2.3,1.21,3.04,2.1Z"/>
      <path class="cls-1" d="M310.54,119.08c.04-8.51.06-17.01.06-25.52,0-8.02-.02-16.05-.06-24.07-.02-3.87-.04-7.73-.07-11.6-.02-2.72,1.2-7.75-1.35-9.78-1.79-1.43-6.15-.81-8.33-.85-4.35-.07-11.61-1.24-15.68.67-4.29,2.01-2.07,10.25-2.08,13.93-.01,2.74.65,5.78-.3,8.43-1.64,4.57-6.47,1.36-10.16,1.36-16.04,0-24.26,11.92-24.26,36.73,0,23.03,7.26,33.03,18.37,33.03,6.01,0,10.28-3.61,12.87-8.81.78-1.57,1.5-6.85,3.06-4.03.83,1.48.45,4.14.46,5.8.02,2.81-.64,5.04,2.39,6.17,1.92.72,4.15.41,6.15.5,3.79.17,7.59.14,11.38-.06,2.31-.13,4.92.19,6.44-1.5.26-.29.49-.64.68-1.07.86-1.91.34-4.29.35-6.31.03-4.34.06-8.68.08-13.02ZM276.97,95.48c-2.56,4.85-9.26,3-12.43-.23-3.12-3.18-3.63-8.61-.32-11.89,3.33-3.29,9.17-2.29,11.41,1.72,1.16.77,2.04,1.91,2.51,3.45.69,2.29-.09,4.9-1.17,6.95Z"/>
      <path class="cls-1" d="M404.43,130.38c0-3.91-.23-7.83-.69-11.72-.41-3.5-.83-5.4-4.7-5.97-2.88-.43-5.81.38-8.68.51-3.01.14-6.03.28-9.04.42-2.33.11-6.13,1.44-7.91-.27-1.11-1.06-1.45-2.77-1.08-4.26.2-.79.62-1.58,1.33-1.96.54-.29,1.18-.31,1.79-.31,5.11.04,10.22.21,15.33.38,2.96.1,8.85,1.82,11.47-.44.14-.12.27-.25.39-.39,1.45-1.73.87-6.13.84-8.27-.04-2.75-.29-5.51-.87-8.21-1.99-9.3-8.17-16.16-17.52-18.33-2.74-.64-5.57-.88-8.38-.88-20.56,0-29.6,13.16-29.6,36.59,0,25.08,11.51,34.68,36.18,34.68,6.13,0,13.48.37,19.23-2.02,2.93-1.21,1.92-7.03,1.91-9.56ZM379.77,89.5c1.04-1.67,2.87-2.61,4.8-2.76.92-.07,1.77.09,2.56.42.88-.15,2.1-.05,2.78.47,1.58,1.21,2.69,2.72,2.69,4.79,0,1.33-.38,2.69-1.12,3.8-1.98,2.96-6.18,4.06-9.32,2.27-3.1-1.77-4.3-5.94-2.39-9Z"/>
    </g>
  </g>
</svg>